<?xml version="1.0" standalone="no"?>
<!DOCTYPE svg PUBLIC "-//W3C//DTD SVG 20010904//EN"
 "http://www.w3.org/TR/2001/REC-SVG-20010904/DTD/svg10.dtd">
<svg version="1.0" xmlns="http://www.w3.org/2000/svg"
 width="1320.000000pt" height="1000.000000pt" viewBox="0 0 1320.000000 1000.000000"
 preserveAspectRatio="xMidYMid meet">

<g transform="translate(0.000000,1000.000000) scale(0.100000,-0.100000)" stroke="none">
<path d="M6500 8486 c-64 -18 -71 -22 -760 -419 -1633 -941 -1999 -1153 -2047
-1186 -95 -67 -153 -162 -172 -281 -15 -89 -15 -3109 -1 -3200 19 -119 84
-221 185 -289 22 -16 148 -90 280 -166 311 -179 269 -155 1405 -810 536 -309
998 -574 1026 -588 75 -38 172 -52 253 -38 82 15 107 28 721 382 1771 1022
2069 1195 2105 1220 101 68 166 170 185 289 14 88 13 3099 0 3195 -18 122 -76
218 -173 286 -29 20 -176 107 -327 194 -151 87 -545 314 -875 505 -874 505
-1464 844 -1515 870 -95 48 -199 61 -290 36z m-832 -1265 l792 -1 0 -335 0
-335 -572 -2 -572 -3 82 -60 81 -60 1 -547 0 -548 345 0 345 0 0 -335 0 -335
-425 0 c-234 0 -425 -3 -425 -7 1 -5 37 -34 80 -66 l80 -59 -2 -879 -3 -880
-280 0 c-154 0 -286 0 -292 1 -10 0 -13 440 -13 2164 l0 2164 -45 55 c-25 31
-45 59 -45 64 0 5 17 8 38 7 20 -1 394 -3 830 -3z m2517 -50 c122 -60 207
-169 234 -299 7 -35 11 -252 11 -637 l0 -585 -290 0 -290 0 0 445 0 445 -432
0 c-343 -1 -430 -3 -417 -13 9 -7 48 -37 87 -66 l72 -55 0 -1493 0 -1492 343
2 342 2 3 881 2 881 -77 58 c-43 32 -82 62 -88 66 -5 5 157 9 368 9 l377 0 0
-1285 0 -1285 -732 0 c-799 0 -807 1 -911 58 -105 57 -183 167 -207 291 -7 35
-10 683 -10 1890 0 1598 2 1844 15 1894 40 155 138 261 283 308 53 17 97 18
652 16 l595 -2 70 -34z"/>
</g>
</svg>
